<svg width="493" height="761" viewBox="0 0 493 761" xmlns="http://www.w3.org/2000/svg" xmlns:xlink="http://www.w3.org/1999/xlink"><title>Artboard</title><defs><rect id="a" x="-70" y="613" width="560.454" height="26" rx="4"/><rect id="b" x="-23" y="106" width="513.699" height="22" rx="4"/><rect id="c" x="-70" y="412.571" width="560.454" height="22" rx="4"/><rect id="d" x="-70" y="522.857" width="560.454" height="26" rx="4"/><rect id="e" x="-70" y="466.714" width="560.454" height="24" rx="4"/><rect id="f" x="-70" y="583" width="560.454" height="26" rx="4"/><rect id="g" width="513.699" height="22" rx="4"/><rect id="h" width="560.471" height="22" rx="4"/><rect id="i" y="1.403" width="560.471" height="24" rx="4"/><rect id="j" y="1.195" width="560.471" height="23" rx="4"/><rect id="k" y="1.688" width="560.471" height="26" rx="4"/><rect id="l" width="513.699" height="22" rx="4"/><rect id="m" width="523.1" height="22" rx="4"/><rect id="n" width="513.699" height="22" rx="4"/><rect id="o" width="509.224" height="25" rx="4"/><rect id="p" width="513.699" height="22" rx="4"/><rect id="q" width="509.224" height="24" rx="4"/><path id="r" d="M0 0h10v129H0z"/><rect id="t" width="513.699" height="22" rx="4"/><rect id="u" width="513.699" height="22" rx="4"/><rect id="v" width="513.699" height="22" rx="4"/><rect id="w" width="513.699" height="22" rx="4"/><rect id="x" width="513.699" height="22" rx="4"/><path id="y" d="M0 0h13v129H0z"/><rect id="A" y="2" width="513.699" height="26" rx="4"/><rect id="B" width="513.699" height="26" rx="4"/><rect id="C" width="513.699" height="26" rx="4"/><rect id="D" width="513.699" height="26" rx="4"/><rect id="E" x="2" y="262" width="15" height="15" rx="4"/><rect id="F" x="2" y="279.75" width="15" height="15" rx="7.5"/><rect id="G" x="20" y="279.75" width="15" height="15" rx="7.5"/><rect id="H" x="38" y="279.75" width="15" height="15" rx="7.5"/><rect id="I" x="56" y="279.75" width="15" height="15" rx="7.5"/><rect id="J" width="15" height="15" rx="7.5"/><rect id="K" width="15" height="15" rx="7.5"/><rect id="L" width="15" height="15" rx="7.5"/><rect id="M" width="15" height="15" rx="7.5"/><rect id="N" x="146" y="279.75" width="15" height="15" rx="7.5"/><rect id="O" x="21" y="262" width="15" height="15" rx="4"/><rect id="P" x="40" y="262" width="15" height="15" rx="4"/><rect id="Q" x="59" y="262" width="15" height="15" rx="4"/><rect id="R" x="78" y="262" width="15" height="15" rx="4"/><rect id="S" x="97" y="262" width="15" height="15" rx="4"/><rect id="T" x="116" y="262" width="15" height="15" rx="4"/><rect id="U" x="135" y="262" width="15" height="15" rx="4"/><rect id="V" x="154" y="262" width="15" height="15" rx="4"/><rect id="W" x="173" y="262" width="15" height="15" rx="4"/><rect id="X" width="15" height="15" rx="7.5"/><rect id="Y" x="-70" width="560.454" height="22" rx="4"/></defs><g fill="none" fill-rule="evenodd"><g opacity=".5"><use stroke="#D0D0D0" stroke-width="3" fill="#FFF" xlink:href="#a"/><rect stroke="#676E77" x="-69.5" y="613.5" width="559.454" height="25" rx="4"/></g><g opacity=".5"><use fill="#FFF" xlink:href="#b"/><use stroke="#D0D0D0" stroke-width="3" fill="#F6F6F6" xlink:href="#b"/><rect stroke="#676E77" x="-22.5" y="106.5" width="512.699" height="21" rx="4"/></g><use stroke="#D0D0D0" stroke-width="3" fill="#FFF" xlink:href="#c"/><rect stroke="#676E77" x="-69.5" y="413.071" width="559.454" height="21" rx="4"/><use stroke="#D0D0D0" stroke-width="3" fill="#FFF" xlink:href="#d"/><rect stroke="#676E77" x="-69.5" y="523.357" width="559.454" height="25" rx="4"/><use fill="#FFF" xlink:href="#e"/><use stroke="#D0D0D0" stroke-width="3" fill="#F6F6F6" xlink:href="#e"/><rect stroke="#676E77" x="-69.5" y="467.214" width="559.454" height="23" rx="4"/><use fill="#FFF" xlink:href="#f"/><use stroke="#D0D0D0" stroke-width="3" fill="#F6F6F6" xlink:href="#f"/><rect stroke="#676E77" x="-69.5" y="583.5" width="559.454" height="25" rx="4"/><g fill="#D0D0D0"><path d="M477 115.884l3.884-3.884 3.885 3.884zM484.769 118.326l-3.885 3.884-3.884-3.884z"/></g><g opacity=".5"><g transform="translate(-23 80)"><use fill="#FFF" xlink:href="#g"/><use stroke="#D0D0D0" stroke-width="3" fill="#F6F6F6" xlink:href="#g"/><rect stroke="#676E77" x=".5" y=".5" width="512.699" height="21" rx="4"/></g><path fill="#676E77" d="M477 89.884L480.884 86l3.885 3.884zM484.769 92.326l-3.885 3.884L477 92.326z"/></g><g transform="translate(-70 384)"><use fill="#FFF" xlink:href="#h"/><use stroke="#D0D0D0" stroke-width="3" fill="#F6F6F6" xlink:href="#h"/><rect stroke="#676E77" x=".5" y=".5" width="559.471" height="21" rx="4"/></g><g transform="translate(-70 493)"><use fill="#FFF" xlink:href="#i"/><use stroke="#D0D0D0" stroke-width="3" fill="#F6F6F6" xlink:href="#i"/><rect stroke="#676E77" x=".5" y="1.903" width="559.471" height="23" rx="4"/></g><g transform="translate(-70 439)"><use stroke="#D0D0D0" stroke-width="3" fill="#FFF" xlink:href="#j"/><rect stroke="#676E77" x=".5" y="1.695" width="559.471" height="22" rx="4"/></g><g transform="translate(-70 551)"><use stroke="#D0D0D0" stroke-width="3" fill="#FFF" xlink:href="#k"/><rect stroke="#676E77" x=".5" y="2.188" width="559.471" height="25" rx="4"/></g><g transform="translate(-23 54)"><use stroke="#D0D0D0" stroke-width="3" fill="#FFF" xlink:href="#l"/><rect stroke="#676E77" x=".5" y=".5" width="512.699" height="21" rx="4"/></g><path fill="#676E77" d="M477 63.884L480.884 60l3.885 3.884zM484.769 66.326l-3.885 3.884L477 66.326z"/><g transform="translate(-4 356)"><use stroke="#D0D0D0" stroke-width="3" fill="#FFF" xlink:href="#m"/><rect stroke="#676E77" x=".5" y=".5" width="522.1" height="21" rx="4"/></g><g transform="translate(-23 28)"><use fill="#FFF" xlink:href="#n"/><use stroke="#D0D0D0" stroke-width="3" fill="#F6F6F6" xlink:href="#n"/><rect stroke="#676E77" x=".5" y=".5" width="512.699" height="21" rx="4"/></g><path fill="#676E77" d="M477 37.884L480.884 34l3.885 3.884zM484.769 40.326l-3.885 3.884L477 40.326z"/><g transform="translate(3.088 326.25)"><use fill="#FFF" xlink:href="#o"/><use stroke="#D0D0D0" stroke-width="3" fill="#F6F6F6" xlink:href="#o"/><rect stroke="#676E77" x=".5" y=".5" width="508.224" height="24" rx="4"/></g><g transform="translate(-23 2)"><use fill="#FFF" xlink:href="#p"/><rect stroke="#676E77" x=".5" y=".5" width="512.699" height="21" rx="4"/></g><path fill="#676E77" d="M477 11.884L480.884 8l3.885 3.884zM484.769 14.326l-3.885 3.884L477 14.326z"/><g transform="translate(3.088 299)"><use fill="#FFF" xlink:href="#q"/><rect stroke="#676E77" x=".5" y=".5" width="508.224" height="23" rx="4"/></g><g transform="translate(0 131)"><mask id="s" fill="#fff"><use xlink:href="#r"/></mask><g transform="translate(2 105)" mask="url(#s)" opacity=".5"><use fill="#FFF" xlink:href="#t"/><use stroke="#D0D0D0" stroke-width="3" fill="#F6F6F6" xlink:href="#t"/><rect stroke="#676E77" x=".5" y=".5" width="512.699" height="21" rx="4"/></g><g transform="translate(2 79)" opacity=".5" mask="url(#s)"><use fill="#FFF" xlink:href="#u"/><use stroke="#D0D0D0" stroke-width="3" fill="#F6F6F6" xlink:href="#u"/><rect stroke="#676E77" x=".5" y=".5" width="512.699" height="21" rx="4"/></g><g transform="translate(2 53)" mask="url(#s)"><use stroke="#D0D0D0" stroke-width="3" fill="#FFF" xlink:href="#v"/><rect stroke="#676E77" x=".5" y=".5" width="512.699" height="21" rx="4"/></g><g transform="translate(2 27)" mask="url(#s)"><use fill="#FFF" xlink:href="#w"/><use stroke="#D0D0D0" stroke-width="3" fill="#F6F6F6" xlink:href="#w"/><rect stroke="#676E77" x=".5" y=".5" width="512.699" height="21" rx="4"/></g><g transform="translate(2 1)" mask="url(#s)"><use fill="#FFF" xlink:href="#x"/><rect stroke="#676E77" x=".5" y=".5" width="512.699" height="21" rx="4"/></g></g><g transform="translate(0 643)"><mask id="z" fill="#fff"><use xlink:href="#y"/></mask><g transform="translate(2 88)" opacity=".5" mask="url(#z)"><use fill="#FFF" xlink:href="#A"/><use stroke="#D0D0D0" stroke-width="3" fill="#F6F6F6" xlink:href="#A"/><rect stroke="#676E77" x=".5" y="2.5" width="512.699" height="25" rx="4"/></g><g transform="translate(2 60)" mask="url(#z)"><use stroke="#D0D0D0" stroke-width="3" fill="#FFF" xlink:href="#B"/><rect stroke="#676E77" x=".5" y=".5" width="512.699" height="25" rx="4"/></g><g transform="translate(2 30)" mask="url(#z)"><use stroke="#D0D0D0" stroke-width="3" xlink:href="#C"/><rect stroke="#676E77" x=".5" y=".5" width="512.699" height="25" rx="4"/></g><g transform="translate(2)" mask="url(#z)"><use fill="#FFF" xlink:href="#D"/><rect stroke="#676E77" x=".5" y=".5" width="512.699" height="25" rx="4"/></g></g><use fill="#FFF" xlink:href="#E"/><rect stroke="#676E77" x="2.5" y="262.5" width="14" height="14" rx="4"/><use fill="#FFF" xlink:href="#F"/><rect stroke="#676E77" x="2.5" y="280.25" width="14" height="14" rx="7"/><use fill="#FFF" xlink:href="#G"/><use stroke="#D0D0D0" stroke-width="2" fill="#F6F6F6" xlink:href="#G"/><rect stroke="#676E77" x="20.5" y="280.25" width="14" height="14" rx="7"/><g><use stroke="#D0D0D0" stroke-width="2" fill="#FFF" xlink:href="#H"/><rect stroke="#676E77" x="38.5" y="280.25" width="14" height="14" rx="7"/></g><g><use fill="#FFF" xlink:href="#I"/><use stroke="#D0D0D0" stroke-width="2" fill="#F6F6F6" xlink:href="#I"/><rect stroke="#676E77" x="56.5" y="280.25" width="14" height="14" rx="7"/></g><g transform="translate(74 279.75)"><use fill="#FFF" xlink:href="#J"/><rect stroke="#676E77" x=".5" y=".5" width="14" height="14" rx="7"/><rect fill="#676E77" x="2.5" y="2.5" width="10" height="10" rx="5"/></g><g transform="translate(92 279.75)"><use fill="#FFF" xlink:href="#K"/><use stroke="#D0D0D0" stroke-width="2" fill="#F6F6F6" xlink:href="#K"/><rect stroke="#676E77" x=".5" y=".5" width="14" height="14" rx="7"/><rect fill="#676E77" x="2.5" y="2.5" width="10" height="10" rx="5"/></g><g transform="translate(110 279.75)"><use stroke="#D0D0D0" stroke-width="2" fill="#FFF" xlink:href="#L"/><rect stroke="#676E77" x=".5" y=".5" width="14" height="14" rx="7"/><rect fill="#676E77" x="2.5" y="2.5" width="10" height="10" rx="5"/></g><g transform="translate(128 279.75)"><use fill="#FFF" xlink:href="#M"/><use stroke="#D0D0D0" stroke-width="2" fill="#F6F6F6" xlink:href="#M"/><rect stroke="#676E77" x=".5" y=".5" width="14" height="14" rx="7"/><rect fill="#676E77" x="2.5" y="2.5" width="10" height="10" rx="5"/></g><g opacity=".5"><use fill="#FFF" xlink:href="#N"/><rect stroke="#676E77" x="146.5" y="280.25" width="14" height="14" rx="7"/></g><g><use fill="#FFF" xlink:href="#O"/><use stroke="#D0D0D0" stroke-width="2" fill="#F6F6F6" xlink:href="#O"/><rect stroke="#676E77" x="21.5" y="262.5" width="14" height="14" rx="4"/></g><g><use stroke="#D0D0D0" stroke-width="2" fill="#FFF" xlink:href="#P"/><rect stroke="#676E77" x="40.5" y="262.5" width="14" height="14" rx="4"/></g><g><use fill="#FFF" xlink:href="#Q"/><use stroke="#D0D0D0" stroke-width="2" fill="#F6F6F6" xlink:href="#Q"/><rect stroke="#676E77" x="59.5" y="262.5" width="14" height="14" rx="4"/></g><g><use fill="#FFF" xlink:href="#R"/><rect stroke="#676E77" x="78.5" y="262.5" width="14" height="14" rx="4"/></g><g><use fill="#FFF" xlink:href="#S"/><use stroke="#D0D0D0" stroke-width="2" fill="#F6F6F6" xlink:href="#S"/><rect stroke="#676E77" x="97.5" y="262.5" width="14" height="14" rx="4"/></g><g><use stroke="#D0D0D0" stroke-width="2" fill="#FFF" xlink:href="#T"/><rect stroke="#676E77" x="116.5" y="262.5" width="14" height="14" rx="4"/></g><g><use fill="#FFF" xlink:href="#U"/><use stroke="#D0D0D0" stroke-width="2" fill="#F6F6F6" xlink:href="#U"/><rect stroke="#676E77" x="135.5" y="262.5" width="14" height="14" rx="4"/></g><g opacity=".5"><use fill="#FFF" xlink:href="#V"/><rect stroke="#676E77" x="154.5" y="262.5" width="14" height="14" rx="4"/></g><g opacity=".5"><use fill="#FFF" xlink:href="#W"/><rect stroke="#676E77" x="173.5" y="262.5" width="14" height="14" rx="4"/></g><path d="M81 269.382l3.486 3.485 2.746-2.747 2.747-2.747L88.606 266l-4.12 4.12-2.113-2.112L81 269.382zM100 269.382l3.486 3.485 2.746-2.747 2.747-2.747-1.373-1.373-4.12 4.12-2.113-2.112-1.373 1.374zM119 269.382l3.486 3.485 2.746-2.747 2.747-2.747-1.373-1.373-4.12 4.12-2.113-2.112-1.373 1.374zM138 269.382l3.486 3.485 2.746-2.747 2.747-2.747-1.373-1.373-4.12 4.12-2.113-2.112-1.373 1.374z" fill="#676E77"/><path d="M176.02 269.382l3.486 3.485 2.747-2.747 2.747-2.747-1.373-1.373-4.12 4.12-2.113-2.112-1.373 1.374z" fill="#676E77" opacity=".5"/><g opacity=".5" transform="translate(164 279.75)"><use fill="#FFF" xlink:href="#X"/><rect stroke="#676E77" x=".5" y=".5" width="14" height="14" rx="7"/><rect fill="#676E77" x="2.5" y="2.5" width="10" height="10" rx="5"/></g><g><use fill="#FFF" xlink:href="#Y"/><use stroke="#D0D0D0" stroke-width="3" fill="#F6F6F6" xlink:href="#Y"/><rect stroke="#676E77" x="-69.5" y=".5" width="559.454" height="21" rx="4"/></g></g></svg>